<?xml version="1.0" encoding="utf-8"?>
<!-- Generator: Adobe Illustrator 26.0.3, SVG Export Plug-In . SVG Version: 6.00 Build 0)  -->
<svg version="1.1" id="Layer_1" focusable="false" xmlns="http://www.w3.org/2000/svg" xmlns:xlink="http://www.w3.org/1999/xlink"
	 x="0px" y="0px" viewBox="0 0 448 378" style="enable-background:new 0 0 448 378;" xml:space="preserve">
<path d="M16,30.7h416c8.8,0,16-1.4,16-3.1v-7.6c0-1.7-7.2-3.1-16-3.1H16c-8.8,0-16,1.4-16,3.1v7.6C0,29.4,7.2,30.7,16,30.7z"/>
<path d="M16,203h416c8.8,0,16-1.4,16-3.1v-7.6c0-1.7-7.2-3.1-16-3.1H16c-8.8,0-16,1.4-16,3.1v7.6C0,201.7,7.2,203,16,203z"/>
<path d="M16,361h416c8.8,0,16-1.4,16-3.1v-7.6c0-1.7-7.2-3.1-16-3.1H16c-8.8,0-16,1.4-16,3.1v7.6C0,359.6,7.2,361,16,361z"/>
</svg>
